solid OpenSCAD_Model
  facet normal 1 -0 0
    outer loop
      vertex 1 0 1
      vertex 1 1 0
      vertex 1 1 1
    endloop
  endfacet
  facet normal 1 0 0
    outer loop
      vertex 1 1 0
      vertex 1 0 1
      vertex 1 0 0
    endloop
  endfacet
  facet normal -0 0 1
    outer loop
      vertex 0.414213 1 1
      vertex 1 0 1
      vertex 1 1 1
    endloop
  endfacet
  facet normal 0 0 1
    outer loop
      vertex -0.707107 0.707107 1
      vertex 0.414213 1 1
      vertex 0 1.41421 1
    endloop
  endfacet
  facet normal 0 0 1
    outer loop
      vertex 0.414213 1 1
      vertex 0 0 1
      vertex 1 0 1
    endloop
  endfacet
  facet normal 0 0 1
    outer loop
      vertex 0.414213 1 1
      vertex -0.707107 0.707107 1
      vertex 0 0 1
    endloop
  endfacet
  facet normal 0 0 -1
    outer loop
      vertex 1 0 0
      vertex 0.414213 1 0
      vertex 1 1 0
    endloop
  endfacet
  facet normal 0 0 -1
    outer loop
      vertex 0 0 0
      vertex 0.414213 1 0
      vertex 1 0 0
    endloop
  endfacet
  facet normal 0 0 -1
    outer loop
      vertex -0.707107 0.707107 0
      vertex 0.414213 1 0
      vertex 0 0 0
    endloop
  endfacet
  facet normal -0 0 -1
    outer loop
      vertex 0.414213 1 0
      vertex -0.707107 0.707107 0
      vertex 0 1.41421 0
    endloop
  endfacet
  facet normal 0 1 -0
    outer loop
      vertex 1 1 0
      vertex 0.414213 1 1
      vertex 1 1 1
    endloop
  endfacet
  facet normal 0 1 0
    outer loop
      vertex 0.414213 1 1
      vertex 1 1 0
      vertex 0.414213 1 0
    endloop
  endfacet
  facet normal 0 -1 0
    outer loop
      vertex 0 0 0
      vertex 1 0 1
      vertex 0 0 1
    endloop
  endfacet
  facet normal 0 -1 -0
    outer loop
      vertex 1 0 1
      vertex 0 0 0
      vertex 1 0 0
    endloop
  endfacet
  facet normal 1 -0 0
    outer loop
      vertex 4 0 1
      vertex 4 1 0
      vertex 4 1 1
    endloop
  endfacet
  facet normal 1 0 0
    outer loop
      vertex 4 1 0
      vertex 4 0 1
      vertex 4 0 0
    endloop
  endfacet
  facet normal -0 0 1
    outer loop
      vertex 3 1 1
      vertex 4 0 1
      vertex 4 1 1
    endloop
  endfacet
  facet normal 0 0 1
    outer loop
      vertex 4 0 1
      vertex 3 1 1
      vertex 3 0 1
    endloop
  endfacet
  facet normal 0 0 -1
    outer loop
      vertex 3 0 0
      vertex 4 1 0
      vertex 4 0 0
    endloop
  endfacet
  facet normal -0 0 -1
    outer loop
      vertex 4 1 0
      vertex 3 0 0
      vertex 3 1 0
    endloop
  endfacet
  facet normal -1 0 0
    outer loop
      vertex 3 0 0
      vertex 3 1 1
      vertex 3 1 0
    endloop
  endfacet
  facet normal -1 -0 0
    outer loop
      vertex 3 1 1
      vertex 3 0 0
      vertex 3 0 1
    endloop
  endfacet
  facet normal 0 1 -0
    outer loop
      vertex 4 1 0
      vertex 3 1 1
      vertex 4 1 1
    endloop
  endfacet
  facet normal 0 1 0
    outer loop
      vertex 3 1 1
      vertex 4 1 0
      vertex 3 1 0
    endloop
  endfacet
  facet normal 0 -1 0
    outer loop
      vertex 3 0 0
      vertex 4 0 1
      vertex 3 0 1
    endloop
  endfacet
  facet normal 0 -1 -0
    outer loop
      vertex 4 0 1
      vertex 3 0 0
      vertex 4 0 0
    endloop
  endfacet
  facet normal -0.707107 -0.707107 0
    outer loop
      vertex 0 0 0
      vertex -0.707107 0.707107 1
      vertex -0.707107 0.707107 0
    endloop
  endfacet
  facet normal -0.707107 -0.707107 0
    outer loop
      vertex -0.707107 0.707107 1
      vertex 0 0 0
      vertex 0 0 1
    endloop
  endfacet
  facet normal -0.707105 0.707109 0
    outer loop
      vertex -0.707107 0.707107 0
      vertex 0 1.41421 1
      vertex 0 1.41421 0
    endloop
  endfacet
  facet normal -0.707105 0.707109 0
    outer loop
      vertex 0 1.41421 1
      vertex -0.707107 0.707107 0
      vertex -0.707107 0.707107 1
    endloop
  endfacet
  facet normal 0.707104 0.707109 0
    outer loop
      vertex 0.414213 1 1
      vertex 0 1.41421 0
      vertex 0 1.41421 1
    endloop
  endfacet
  facet normal 0.707104 0.707109 0
    outer loop
      vertex 0 1.41421 0
      vertex 0.414213 1 1
      vertex 0.414213 1 0
    endloop
  endfacet
endsolid OpenSCAD_Model
